<?xml version="1.0" encoding="iso-8859-1"?>
<!-- Generator: Adobe Illustrator 19.0.0, SVG Export Plug-In . SVG Version: 6.00 Build 0)  -->
<svg version="1.1" id="Layer_1" xmlns="http://www.w3.org/2000/svg" xmlns:xlink="http://www.w3.org/1999/xlink" x="0px" y="0px"
	 viewBox="0 0 512 512" style="enable-background:new 0 0 512 512;" xml:space="preserve">
<g>
	<g>
		<path d="M341.333,46.951H170.667C76.41,46.951,0,123.361,0,217.618s76.41,170.667,170.667,170.667h124.501l74.325,74.325
			c3.366,3.299,8.768,3.245,12.067-0.121c1.555-1.586,2.43-3.717,2.439-5.938v-73.728c75.337-19.452,127.981-87.397,128-165.205
			C512,123.361,435.59,46.951,341.333,46.951z M449.877,326.162c-20.806,20.986-47.293,35.431-76.203,41.557
			c-4.003,0.859-6.832,4.44-6.741,8.533v59.733l-62.208-62.208c-1.596-1.629-3.778-2.551-6.059-2.56h-128
			c-84.831,0-153.6-68.769-153.6-153.6s68.769-153.6,153.6-153.6h170.667c84.831,0.075,153.539,68.904,153.465,153.735
			C494.762,258.41,478.609,297.395,449.877,326.162z"/>
	</g>
</g>
<g>
</g>
<g>
</g>
<g>
</g>
<g>
</g>
<g>
</g>
<g>
</g>
<g>
</g>
<g>
</g>
<g>
</g>
<g>
</g>
<g>
</g>
<g>
</g>
<g>
</g>
<g>
</g>
<g>
</g>
</svg>
